<svg version="1.1" id="Layer_1" xmlns="http://www.w3.org/2000/svg" xmlns:xlink="http://www.w3.org/1999/xlink" x="0px" y="0px" viewBox="0 0 100 100" style="enable-background:new 0 0 100 100;" xml:space="preserve">
<path d="M83.5581665,25.5307007v23.3845215c0,8.2102661-6.8755493,14.866333-15.3568115,14.866333H47.7214966
	c-1.4643555,0-2.8573608,0.5819702-3.8223877,1.5966797l-6.8900757,7.2451172h18.9505615
	c1.0093384,0,1.9727173,0.3893433,2.6565552,1.0736084L74.9051514,90l4.1282959-15.420166
	c0.3043213-1.1364136,1.2962646-1.9996338,2.541687-2.2294312C88.0894775,71.1487427,93,65.8621216,93,59.5059814V37.8690796
	C93,32.177063,89.0579834,27.3458862,83.5581665,25.5307007z" id="id_101" style="fill: rgb(250, 250, 250);"></path>
<polygon points="17.3873291,36.3867798 17.3878784,36.3861694 17.3866577,36.3874512 " id="id_102" style="fill: rgb(255, 255, 255);"></polygon>
<polygon points="17.2948608,49.7163086 17.2955322,49.717041 17.2944946,49.7158813 " id="id_103" style="fill: rgb(255, 255, 255);"></polygon>
<path d="M45.4988403,60.4179077h19.0609741c4.2888794,0,8.1928711-1.6029663,11.0278931-4.2156982
	c2.8355103-2.6083984,4.6153564-6.2572021,4.6140137-10.28302V24.4985352
	c0.0013428-4.0258179-1.7784424-7.6745605-4.6139526-10.282959C72.7528076,11.6029053,68.848877,10,64.5599365,10H22.6417236
	c-4.2888794,0-8.1928701,1.6029053-11.02777,4.2155762c-2.8355103,2.6083984-4.6153569,6.2571411-4.6139531,10.282959v21.4206543
	c-0.0014038,3.5991211,1.4238286,6.8988647,3.7540288,9.4146118c2.3302612,2.5188599,5.5670767,4.2767944,9.2304678,4.8585815
	l0.0002441,0.000061c0.40271,0.0609131,0.7145386,0.3591309,0.8017578,0.6932373l0.0119629,0.0447388l6.0822754,18.1135254
	L43.510498,61.2110596C44.003479,60.7180176,44.729248,60.4168701,45.4988403,60.4179077z M41.2714844,59.1206055
	L28.1674805,73.1725464L23.7548218,60.03125l-0.0039673,0.0012817c-0.4304199-1.4572144-1.6834106-2.5716553-3.2702026-2.8261719
	h0.0001831c-2.9708862-0.4710083-5.576354-1.8963013-7.4298697-3.9009399
	c-1.8535767-2.0077515-2.9535522-4.5717163-2.9550171-7.3862305V24.4985352
	c0.0014038-3.1461182,1.3765259-5.9904175,3.6420288-8.0819702c2.2659292-2.0874023,5.4088125-3.3914185,8.9037466-3.3914185
	h41.9182129c3.4949341,0,6.6378174,1.3040161,8.9038086,3.3914185c2.2655029,2.0915527,3.640564,4.9358521,3.6420288,8.0819702
	v21.4206543c-0.0014648,3.1460571-1.3765869,5.9904175-3.6420898,8.0821533
	c-2.2660522,2.0873413-5.4089966,3.3914185-8.9038696,3.3914185H45.4988403
	c-1.5848999,0.0010986-3.1054688,0.6074219-4.2086792,1.7091675L41.2714844,59.1206055z" id="id_104" style="fill: rgb(255, 255, 255);"></path>
<polygon points="70.3695679,49.3178101 70.3690796,49.3182983 70.3701172,49.3173218 " id="id_105" style="fill: rgb(255, 255, 255);"></polygon>
<path d="M49,48.5c0,0.8284302,0.6715698,1.5,1.5,1.5s1.5-0.6715698,1.5-1.5v-5.500061h5.5c0.8284302,0,1.5-0.6715698,1.5-1.5
	s-0.6715698-1.5-1.5-1.5H52v-10h5.5c0.8283691,0,1.5-0.6715698,1.499939-1.5c0-0.8284302-0.6715698-1.5-1.5-1.5H52V21.5
	c0-0.8284302-0.6715698-1.5-1.5-1.5S49,20.6715698,49,21.5v5.499939L39,27v-5.5c0-0.8284302-0.6715698-1.5-1.5-1.5
	S36,20.6715698,36,21.5V27h-5.500061c-0.8283691,0-1.5,0.6715698-1.499939,1.5c0,0.8284302,0.6715698,1.5,1.5,1.5H36v10h-5.5
	c-0.8284302,0-1.5,0.6715698-1.5,1.5s0.6715698,1.5,1.5,1.5H36v5.5c0,0.8284302,0.6715698,1.5,1.5,1.5s1.5-0.6715698,1.5-1.5V43
	l10-0.000061V48.5z M39,40V30l10-0.000061v10L39,40z" id="id_106" style="fill: rgb(255, 255, 255);"></path>
</svg>