<svg version="1.1" id="Layer_1" xmlns="http://www.w3.org/2000/svg" xmlns:xlink="http://www.w3.org/1999/xlink" x="0px" y="0px" viewBox="0 0 32 32" style="enable-background:new 0 0 32 32;" xml:space="preserve">
<style type="text/css">
	.st0{fill:none;}
</style>
<g>
	<path d="M26,2h-8c-0.6,0-1,0.4-1,1v11c0,0.6,0.4,1,1,1h8c0.6,0,1-0.4,1-1V3C27,2.4,26.6,2,26,2z" id="id_101" style="fill: rgb(250, 254, 255);"></path>
	<path d="M26,17h-8c-0.6,0-1,0.4-1,1v11c0,0.6,0.4,1,1,1h8c0.6,0,1-0.4,1-1V18C27,17.4,26.6,17,26,17z" id="id_102" style="fill: rgb(255, 255, 255);"></path>
	<path d="M14,17H6c-0.6,0-1,0.4-1,1v11c0,0.6,0.4,1,1,1h8c0.6,0,1-0.4,1-1V18C15,17.4,14.6,17,14,17z" id="id_103" style="fill: rgb(221, 233, 235);"></path>
	<path d="M5.8,8.4V14c0,0.6,0.4,1,1,1h6.5c0.6,0,1-0.4,1-1V8.4c0.2-0.1,0.4-0.3,0.6-0.5c0.2-0.4,0.1-0.8-0.2-1.1l-4-4.4
		c-0.4-0.4-1.1-0.4-1.5,0l-4,4.4C5,7.1,4.9,7.5,5.1,7.8C5.2,8.1,5.5,8.4,5.8,8.4z" id="id_104" style="fill: rgb(255, 255, 255);"></path>
</g>
</svg>