<svg version="1.1" id="Icons" xmlns="http://www.w3.org/2000/svg" xmlns:xlink="http://www.w3.org/1999/xlink" x="0px" y="0px" viewBox="0 0 32 32" style="enable-background:new 0 0 32 32;" xml:space="preserve">
<path d="M22,16c-4.4,0-8,3.6-8,8c0,1.6,0.5,3.2,1.4,4.6c0.2,0.3,0.5,0.4,0.8,0.4s0.6-0.2,0.8-0.4c0.7-1,1.7-1.8,2.9-2.2l4.3-6
	c0.3-0.4,0.9-0.6,1.4-0.2c0.4,0.3,0.6,0.9,0.2,1.4L22.6,26c1.7,0.2,3.3,1.1,4.3,2.5c0.2,0.3,0.5,0.4,0.8,0.4c0.3,0,0.6-0.2,0.8-0.4
	c0.9-1.3,1.4-2.9,1.4-4.6C30,19.6,26.4,16,22,16z" id="id_101" style="fill: rgb(255, 255, 255);"></path>
<g>
	<path d="M12,24c0-5.5,4.5-10,10-10c3.3,0,6.2,1.6,8,4V7c0-1.7-1.3-3-3-3H5C3.3,4,2,5.3,2,7v18c0,1.7,1.3,3,3,3h7.8
		C12.3,26.7,12,25.4,12,24z M12.1,7.6c0.1-0.1,0.1-0.2,0.2-0.3c0.4-0.4,1-0.4,1.4,0c0.1,0.1,0.2,0.2,0.2,0.3C14,7.7,14,7.9,14,8
		c0,0.1,0,0.3-0.1,0.4c-0.1,0.1-0.1,0.2-0.2,0.3C13.5,8.9,13.3,9,13,9c-0.1,0-0.3,0-0.4-0.1c-0.1-0.1-0.2-0.1-0.3-0.2
		c-0.1-0.1-0.2-0.2-0.2-0.3C12,8.3,12,8.1,12,8C12,7.9,12,7.7,12.1,7.6z M9.1,7.6c0.1-0.1,0.1-0.2,0.2-0.3c0.1-0.1,0.2-0.2,0.3-0.2
		C10,6.9,10.4,7,10.7,7.3c0.1,0.1,0.2,0.2,0.2,0.3C11,7.7,11,7.9,11,8c0,0.3-0.1,0.5-0.3,0.7C10.5,8.9,10.3,9,10,9
		C9.7,9,9.5,8.9,9.3,8.7C9.1,8.5,9,8.3,9,8C9,7.9,9,7.7,9.1,7.6z M6.3,7.3c0,0,0.1-0.1,0.1-0.1c0.1,0,0.1-0.1,0.2-0.1
		C6.7,7,6.7,7,6.8,7c0.1,0,0.3,0,0.4,0c0.1,0,0.1,0,0.2,0.1c0.1,0,0.1,0.1,0.2,0.1c0,0,0.1,0.1,0.1,0.1c0.1,0.1,0.2,0.2,0.2,0.3
		C8,7.7,8,7.9,8,8c0,0.1,0,0.3-0.1,0.4C7.9,8.5,7.8,8.6,7.7,8.7C7.5,8.9,7.3,9,7,9S6.5,8.9,6.3,8.7C6.1,8.5,6,8.3,6,8
		C6,7.7,6.1,7.5,6.3,7.3z M7,14h5c0.6,0,1,0.4,1,1s-0.4,1-1,1H7c-0.6,0-1-0.4-1-1S6.4,14,7,14z M9,19H7c-0.6,0-1-0.4-1-1s0.4-1,1-1
		h2c0.6,0,1,0.4,1,1S9.6,19,9,19z" id="id_102" style="fill: rgb(255, 255, 255);"></path>
</g>
</svg>