<svg xmlns="http://www.w3.org/2000/svg" xml:space="preserve" width="1.99999in" height="1.99999in" version="1.1" style="shape-rendering:geometricPrecision; text-rendering:geometricPrecision; image-rendering:optimizeQuality; fill-rule:evenodd; clip-rule:evenodd" viewBox="0 0 2000 2000" xmlns:xlink="http://www.w3.org/1999/xlink">
 <defs>
  <style type="text/css">
   
    .fil0 {fill:black}
   
  </style>
 </defs>
 <g id="Layer_x0020_1">
  <metadata id="CorelCorpID_0Corel-Layer"></metadata>
  <path class="fil0" d="M979 1847l-703 -406 242 -139 352 202 -5 15c-22,75 24,154 99,174l15 4 0 150zm-722 -440l0 -1 0 -812 240 139 0 535 -240 139zm19 -848l0 0 703 -406 0 178 -15 4c-77,21 -111,89 -102,165l-345 199 -241 -140zm744 -407l0 0 706 408 -241 139 -348 -201c8,-75 -25,-142 -102,-163l-15 -4 0 -179zm724 443l0 811 -131 -76 4 -15c21,-74 -25,-153 -100,-172l-15 -4 0 -405 242 -139zm-18 846l-706 408 0 -152 15 -4c75,-20 120,-98 99,-172l-4 -15 243 -140 11 11c55,55 144,55 199,-1l10 -11 133 76zm-706 -128l241 -139 91 52c-12,46 -12,60 1,106l-243 139c-33,-33 -44,-40 -90,-53l0 -105zm428 -170c-35,9 -53,26 -76,49l-91 -52 0 -279 182 -104 0 382 -15 4zm35 36c55,0 99,45 99,99 0,55 -45,100 -99,100 -54,0 -99,-45 -99,-100 0,-54 44,-99 99,-99zm-924 99l181 -104 239 138 0 106c-44,12 -56,19 -89,52l-331 -192zm441 377c-78,0 -124,-87 -87,-148 55,-89 186,-50 186,49 0,55 -45,99 -99,99zm-21 -1046l0 78 -240 139 -182 -104 319 -185c33,45 49,58 103,72zm145 -72l321 185 -182 105 -243 -141 0 -77c55,-14 71,-27 104,-72zm-124 -166c54,0 99,44 99,99 0,55 -45,99 -99,99 -54,0 -100,-45 -100,-99 0,-55 45,-99 100,-99zm-280 490l0 279 -182 105 0 -488 182 104zm39 278l0 -279 241 -139 240 139 0 279 -240 139 -241 -139z" id="id_101" style="fill: rgb(255, 255, 255);"></path>
 </g>
</svg>